# xmcd CD database file
#
# Track frame offsets:
#	150
#	30845
#	77612
#	149592
#	188825
#	226922
#	254175
#
# Disc length: 3924 seconds
#
# Revision: 0
# Processed by: cddbd v1.5.1PL2 Copyright (c) Steve Scherf et al.
# Submitted via: CDex 1.51
#
DISCID=570f5207
DTITLE=Branford Marsalis - Branford Marsalis Quartet - Contemporary Jazz
DYEAR=2000
DGENRE=Jazz
TTITLE0=In The Crease
TTITLE1=Requiem
TTITLE2=Elysium
TTITLE3=Cheek To Cheek
TTITLE4=Tain Mutiny
TTITLE5=Ayanna
TTITLE6=Countronious Rex
EXTD=YEAR: 2000
EXTT0=
EXTT1=
EXTT2=
EXTT3=
EXTT4=
EXTT5=
EXTT6=
PLAYORDER=
